Coordinates
version=1
nRows=32
nColumns=12
inDegrees=yes

Units are S.I. units (second, meters, Newtons, ...)
Angles are in degrees

endheader
time	SC_y	SC_z	SC_x	AC_y	AC_z	AC_x	GH_y	GH_z	GH_yy	EL_x	PS_y
       0.0              -25.28          9.501          14.48           59.4          5.454          2.265          45.85           72.4          144.0          112.1          143.6
   0.04192              -25.28          9.499          14.48           59.4          5.451          2.267          45.83           72.4          144.0          112.1          143.6
   0.08385              -25.28          9.497          14.48           59.4          5.448          2.269          45.81           72.4          144.0          112.1          143.6
    0.1258              -25.28          9.495          14.48           59.4          5.445          2.271          45.78           72.4          143.9          112.1          143.6
    0.1677              -25.28          9.493          14.48           59.4          5.442          2.273          45.76          72.39          143.9          112.0          143.6
    0.2096              -25.29           9.49          14.48           59.4          5.438          2.275          45.74          72.39          143.8          112.0          143.5
    0.2515              -25.29          9.488          14.47           59.4          5.435          2.277          45.71          72.39          143.8          112.0          143.5
    0.2935              -25.29          9.485          14.47           59.4          5.431          2.279          45.68          72.39          143.7          112.0          143.5
    0.3354               -25.3          9.482          14.47           59.4          5.426          2.282          45.65          72.39          143.7          112.0          143.5
    0.3773               -25.3          9.479          14.47          59.39          5.422          2.285          45.62          72.39          143.6          112.0          143.4
    0.4192               -25.3          9.476          14.47          59.39          5.417          2.288          45.59          72.39          143.5          112.0          143.4
    0.4612              -25.31          9.472          14.46          59.39          5.411          2.291          45.55          72.39          143.5          111.9          143.4
    0.5031              -25.31          9.469          14.46          59.39          5.406          2.295          45.51          72.39          143.4          111.9          143.3
     0.545              -25.31          9.465          14.46          59.39          5.399          2.298          45.47          72.38          143.3          111.9          143.3
    0.5869              -25.32           9.46          14.46          59.38          5.393          2.303          45.42          72.38          143.2          111.9          143.2
    0.6289              -25.32          9.455          14.45          59.38          5.385          2.307          45.37          72.38          143.1          111.8          143.2
    0.6708              -25.33           9.45          14.45          59.38          5.377          2.312          45.32          72.38          143.0          111.8          143.1
    0.7127              -25.34          9.444          14.44          59.38          5.369          2.317          45.26          72.38          142.9          111.8          143.1
    0.7546              -25.34          9.438          14.44          59.37          5.359          2.323          45.19          72.38          142.8          111.7          143.0
    0.7966              -25.35          9.431          14.44          59.37          5.349          2.329          45.12          72.37          142.7          111.7          143.0
    0.8385              -25.36          9.424          14.43          59.37          5.338          2.336          45.04          72.37          142.5          111.7          142.9
    0.8804              -25.37          9.416          14.42          59.36          5.325          2.344          44.95          72.37          142.3          111.6          142.8
    0.9223              -25.38          9.406          14.42          59.36          5.311          2.352          44.86          72.36          142.2          111.6          142.7
    0.9643              -25.39          9.396          14.41          59.35          5.296          2.362          44.75          72.36          142.0          111.5          142.6
     1.006               -25.4          9.385           14.4          59.35          5.279          2.372          44.63          72.36          141.7          111.5          142.5
     1.048              -25.41          9.373          14.39          59.34           5.26          2.384           44.5          72.35          141.5          111.4          142.4
      1.09              -25.43          9.359          14.38          59.33          5.239          2.397          44.36          72.35          141.2          111.3          142.2
     1.132              -25.44          9.343          14.37          59.32          5.215          2.411          44.19          72.34          140.9          111.2          142.1
     1.174              -25.46          9.325          14.36          59.32          5.188          2.428           44.0          72.33          140.6          111.1          141.9
     1.216              -25.49          9.305          14.35          59.31          5.157          2.446          43.79          72.33          140.2          111.0          141.7
     1.258              -25.51          9.282          14.33          59.29          5.122          2.468          43.55          72.32          139.7          110.9          141.5
       1.3              -25.54          9.255          14.31          59.28          5.082          2.492          43.27          72.31          139.2          110.8          141.2
